<svg xmlns="http://www.w3.org/2000/svg" viewBox="0 0 33 33" shape-rendering="crispEdges"><rect width="100%" height="100%" fill="#fff"/><path fill="#0d1b26" d="M2 2h1v1h-1zM3 2h1v1h-1zM4 2h1v1h-1zM5 2h1v1h-1zM6 2h1v1h-1zM7 2h1v1h-1zM8 2h1v1h-1zM10 2h1v1h-1zM11 2h1v1h-1zM12 2h1v1h-1zM15 2h1v1h-1zM16 2h1v1h-1zM17 2h1v1h-1zM20 2h1v1h-1zM22 2h1v1h-1zM24 2h1v1h-1zM25 2h1v1h-1zM26 2h1v1h-1zM27 2h1v1h-1zM28 2h1v1h-1zM29 2h1v1h-1zM30 2h1v1h-1zM2 3h1v1h-1zM8 3h1v1h-1zM10 3h1v1h-1zM14 3h1v1h-1zM15 3h1v1h-1zM16 3h1v1h-1zM17 3h1v1h-1zM19 3h1v1h-1zM21 3h1v1h-1zM22 3h1v1h-1zM24 3h1v1h-1zM30 3h1v1h-1zM2 4h1v1h-1zM4 4h1v1h-1zM5 4h1v1h-1zM6 4h1v1h-1zM8 4h1v1h-1zM10 4h1v1h-1zM11 4h1v1h-1zM13 4h1v1h-1zM14 4h1v1h-1zM15 4h1v1h-1zM16 4h1v1h-1zM21 4h1v1h-1zM24 4h1v1h-1zM26 4h1v1h-1zM27 4h1v1h-1zM28 4h1v1h-1zM30 4h1v1h-1zM2 5h1v1h-1zM4 5h1v1h-1zM5 5h1v1h-1zM6 5h1v1h-1zM8 5h1v1h-1zM12 5h1v1h-1zM13 5h1v1h-1zM16 5h1v1h-1zM17 5h1v1h-1zM24 5h1v1h-1zM26 5h1v1h-1zM27 5h1v1h-1zM28 5h1v1h-1zM30 5h1v1h-1zM2 6h1v1h-1zM4 6h1v1h-1zM5 6h1v1h-1zM6 6h1v1h-1zM8 6h1v1h-1zM10 6h1v1h-1zM12 6h1v1h-1zM13 6h1v1h-1zM14 6h1v1h-1zM15 6h1v1h-1zM17 6h1v1h-1zM19 6h1v1h-1zM20 6h1v1h-1zM21 6h1v1h-1zM24 6h1v1h-1zM26 6h1v1h-1zM27 6h1v1h-1zM28 6h1v1h-1zM30 6h1v1h-1zM2 7h1v1h-1zM8 7h1v1h-1zM11 7h1v1h-1zM15 7h1v1h-1zM16 7h1v1h-1zM19 7h1v1h-1zM20 7h1v1h-1zM22 7h1v1h-1zM24 7h1v1h-1zM30 7h1v1h-1zM2 8h1v1h-1zM3 8h1v1h-1zM4 8h1v1h-1zM5 8h1v1h-1zM6 8h1v1h-1zM7 8h1v1h-1zM8 8h1v1h-1zM10 8h1v1h-1zM12 8h1v1h-1zM14 8h1v1h-1zM16 8h1v1h-1zM18 8h1v1h-1zM20 8h1v1h-1zM22 8h1v1h-1zM24 8h1v1h-1zM25 8h1v1h-1zM26 8h1v1h-1zM27 8h1v1h-1zM28 8h1v1h-1zM29 8h1v1h-1zM30 8h1v1h-1zM11 9h1v1h-1zM12 9h1v1h-1zM13 9h1v1h-1zM14 9h1v1h-1zM16 9h1v1h-1zM20 9h1v1h-1zM2 10h1v1h-1zM5 10h1v1h-1zM6 10h1v1h-1zM7 10h1v1h-1zM8 10h1v1h-1zM9 10h1v1h-1zM10 10h1v1h-1zM15 10h1v1h-1zM16 10h1v1h-1zM17 10h1v1h-1zM18 10h1v1h-1zM19 10h1v1h-1zM23 10h1v1h-1zM26 10h1v1h-1zM28 10h1v1h-1zM29 10h1v1h-1zM30 10h1v1h-1zM2 11h1v1h-1zM3 11h1v1h-1zM6 11h1v1h-1zM11 11h1v1h-1zM12 11h1v1h-1zM13 11h1v1h-1zM16 11h1v1h-1zM20 11h1v1h-1zM21 11h1v1h-1zM22 11h1v1h-1zM26 11h1v1h-1zM28 11h1v1h-1zM29 11h1v1h-1zM3 12h1v1h-1zM8 12h1v1h-1zM10 12h1v1h-1zM13 12h1v1h-1zM14 12h1v1h-1zM16 12h1v1h-1zM24 12h1v1h-1zM26 12h1v1h-1zM28 12h1v1h-1zM2 13h1v1h-1zM3 13h1v1h-1zM4 13h1v1h-1zM5 13h1v1h-1zM7 13h1v1h-1zM9 13h1v1h-1zM10 13h1v1h-1zM13 13h1v1h-1zM14 13h1v1h-1zM16 13h1v1h-1zM17 13h1v1h-1zM19 13h1v1h-1zM20 13h1v1h-1zM26 13h1v1h-1zM27 13h1v1h-1zM30 13h1v1h-1zM2 14h1v1h-1zM3 14h1v1h-1zM5 14h1v1h-1zM7 14h1v1h-1zM8 14h1v1h-1zM9 14h1v1h-1zM10 14h1v1h-1zM11 14h1v1h-1zM14 14h1v1h-1zM15 14h1v1h-1zM16 14h1v1h-1zM22 14h1v1h-1zM24 14h1v1h-1zM25 14h1v1h-1zM30 14h1v1h-1zM3 15h1v1h-1zM9 15h1v1h-1zM10 15h1v1h-1zM12 15h1v1h-1zM13 15h1v1h-1zM19 15h1v1h-1zM20 15h1v1h-1zM24 15h1v1h-1zM25 15h1v1h-1zM26 15h1v1h-1zM27 15h1v1h-1zM28 15h1v1h-1zM29 15h1v1h-1zM30 15h1v1h-1zM5 16h1v1h-1zM7 16h1v1h-1zM8 16h1v1h-1zM9 16h1v1h-1zM11 16h1v1h-1zM14 16h1v1h-1zM16 16h1v1h-1zM17 16h1v1h-1zM20 16h1v1h-1zM21 16h1v1h-1zM28 16h1v1h-1zM30 16h1v1h-1zM2 17h1v1h-1zM4 17h1v1h-1zM6 17h1v1h-1zM9 17h1v1h-1zM11 17h1v1h-1zM13 17h1v1h-1zM15 17h1v1h-1zM16 17h1v1h-1zM18 17h1v1h-1zM23 17h1v1h-1zM24 17h1v1h-1zM25 17h1v1h-1zM28 17h1v1h-1zM30 17h1v1h-1zM5 18h1v1h-1zM6 18h1v1h-1zM7 18h1v1h-1zM8 18h1v1h-1zM10 18h1v1h-1zM11 18h1v1h-1zM13 18h1v1h-1zM14 18h1v1h-1zM17 18h1v1h-1zM25 18h1v1h-1zM27 18h1v1h-1zM2 19h1v1h-1zM3 19h1v1h-1zM5 19h1v1h-1zM6 19h1v1h-1zM10 19h1v1h-1zM13 19h1v1h-1zM20 19h1v1h-1zM21 19h1v1h-1zM22 19h1v1h-1zM26 19h1v1h-1zM28 19h1v1h-1zM29 19h1v1h-1zM2 20h1v1h-1zM3 20h1v1h-1zM4 20h1v1h-1zM6 20h1v1h-1zM8 20h1v1h-1zM10 20h1v1h-1zM11 20h1v1h-1zM13 20h1v1h-1zM14 20h1v1h-1zM15 20h1v1h-1zM16 20h1v1h-1zM18 20h1v1h-1zM19 20h1v1h-1zM21 20h1v1h-1zM24 20h1v1h-1zM26 20h1v1h-1zM27 20h1v1h-1zM30 20h1v1h-1zM2 21h1v1h-1zM3 21h1v1h-1zM6 21h1v1h-1zM7 21h1v1h-1zM9 21h1v1h-1zM11 21h1v1h-1zM13 21h1v1h-1zM14 21h1v1h-1zM15 21h1v1h-1zM17 21h1v1h-1zM18 21h1v1h-1zM20 21h1v1h-1zM23 21h1v1h-1zM27 21h1v1h-1zM28 21h1v1h-1zM2 22h1v1h-1zM3 22h1v1h-1zM4 22h1v1h-1zM6 22h1v1h-1zM7 22h1v1h-1zM8 22h1v1h-1zM9 22h1v1h-1zM15 22h1v1h-1zM18 22h1v1h-1zM19 22h1v1h-1zM22 22h1v1h-1zM23 22h1v1h-1zM24 22h1v1h-1zM25 22h1v1h-1zM26 22h1v1h-1zM27 22h1v1h-1zM28 22h1v1h-1zM29 22h1v1h-1zM10 23h1v1h-1zM14 23h1v1h-1zM15 23h1v1h-1zM18 23h1v1h-1zM19 23h1v1h-1zM20 23h1v1h-1zM22 23h1v1h-1zM26 23h1v1h-1zM27 23h1v1h-1zM2 24h1v1h-1zM3 24h1v1h-1zM4 24h1v1h-1zM5 24h1v1h-1zM6 24h1v1h-1zM7 24h1v1h-1zM8 24h1v1h-1zM10 24h1v1h-1zM11 24h1v1h-1zM13 24h1v1h-1zM15 24h1v1h-1zM17 24h1v1h-1zM19 24h1v1h-1zM21 24h1v1h-1zM22 24h1v1h-1zM24 24h1v1h-1zM26 24h1v1h-1zM27 24h1v1h-1zM2 25h1v1h-1zM8 25h1v1h-1zM10 25h1v1h-1zM12 25h1v1h-1zM13 25h1v1h-1zM14 25h1v1h-1zM15 25h1v1h-1zM17 25h1v1h-1zM18 25h1v1h-1zM19 25h1v1h-1zM22 25h1v1h-1zM26 25h1v1h-1zM29 25h1v1h-1zM2 26h1v1h-1zM4 26h1v1h-1zM5 26h1v1h-1zM6 26h1v1h-1zM8 26h1v1h-1zM10 26h1v1h-1zM12 26h1v1h-1zM13 26h1v1h-1zM15 26h1v1h-1zM17 26h1v1h-1zM18 26h1v1h-1zM21 26h1v1h-1zM22 26h1v1h-1zM23 26h1v1h-1zM24 26h1v1h-1zM25 26h1v1h-1zM26 26h1v1h-1zM27 26h1v1h-1zM2 27h1v1h-1zM4 27h1v1h-1zM5 27h1v1h-1zM6 27h1v1h-1zM8 27h1v1h-1zM10 27h1v1h-1zM11 27h1v1h-1zM12 27h1v1h-1zM13 27h1v1h-1zM15 27h1v1h-1zM16 27h1v1h-1zM17 27h1v1h-1zM18 27h1v1h-1zM19 27h1v1h-1zM20 27h1v1h-1zM21 27h1v1h-1zM29 27h1v1h-1zM2 28h1v1h-1zM4 28h1v1h-1zM5 28h1v1h-1zM6 28h1v1h-1zM8 28h1v1h-1zM12 28h1v1h-1zM13 28h1v1h-1zM14 28h1v1h-1zM15 28h1v1h-1zM16 28h1v1h-1zM17 28h1v1h-1zM21 28h1v1h-1zM23 28h1v1h-1zM25 28h1v1h-1zM26 28h1v1h-1zM28 28h1v1h-1zM29 28h1v1h-1zM30 28h1v1h-1zM2 29h1v1h-1zM8 29h1v1h-1zM11 29h1v1h-1zM12 29h1v1h-1zM18 29h1v1h-1zM20 29h1v1h-1zM21 29h1v1h-1zM22 29h1v1h-1zM23 29h1v1h-1zM26 29h1v1h-1zM27 29h1v1h-1zM28 29h1v1h-1zM30 29h1v1h-1zM2 30h1v1h-1zM3 30h1v1h-1zM4 30h1v1h-1zM5 30h1v1h-1zM6 30h1v1h-1zM7 30h1v1h-1zM8 30h1v1h-1zM10 30h1v1h-1zM11 30h1v1h-1zM13 30h1v1h-1zM15 30h1v1h-1zM17 30h1v1h-1zM21 30h1v1h-1zM22 30h1v1h-1zM24 30h1v1h-1z"/></svg>
